<svg id="visual" viewBox="0 0 960 300" width="960" height="300" xmlns="http://www.w3.org/2000/svg" xmlns:xlink="http://www.w3.org/1999/xlink" version="1.1"><rect x="0" y="0" width="960" height="300" fill="#001220"></rect><path d="M0 198L22.8 200.3C45.7 202.7 91.3 207.3 137 208.5C182.7 209.7 228.3 207.3 274 205.7C319.7 204 365.3 203 411.2 198.8C457 194.7 503 187.3 548.8 183.7C594.7 180 640.3 180 686 180C731.7 180 777.3 180 823 182.2C868.7 184.3 914.3 188.7 937.2 190.8L960 193L960 301L937.2 301C914.3 301 868.7 301 823 301C777.3 301 731.7 301 686 301C640.3 301 594.7 301 548.8 301C503 301 457 301 411.2 301C365.3 301 319.7 301 274 301C228.3 301 182.7 301 137 301C91.3 301 45.7 301 22.8 301L0 301Z" fill="#c62368"></path><path d="M0 228L22.8 228C45.7 228 91.3 228 137 229.5C182.7 231 228.3 234 274 231.2C319.7 228.3 365.3 219.7 411.2 214.3C457 209 503 207 548.8 210C594.7 213 640.3 221 686 223.7C731.7 226.3 777.3 223.7 823 225C868.7 226.3 914.3 231.7 937.2 234.3L960 237L960 301L937.2 301C914.3 301 868.7 301 823 301C777.3 301 731.7 301 686 301C640.3 301 594.7 301 548.8 301C503 301 457 301 411.2 301C365.3 301 319.7 301 274 301C228.3 301 182.7 301 137 301C91.3 301 45.7 301 22.8 301L0 301Z" fill="#d53867"></path><path d="M0 232L22.8 231.2C45.7 230.3 91.3 228.7 137 227C182.7 225.3 228.3 223.7 274 227C319.7 230.3 365.3 238.7 411.2 239.2C457 239.7 503 232.3 548.8 232.8C594.7 233.3 640.3 241.7 686 245.3C731.7 249 777.3 248 823 243.3C868.7 238.7 914.3 230.3 937.2 226.2L960 222L960 301L937.2 301C914.3 301 868.7 301 823 301C777.3 301 731.7 301 686 301C640.3 301 594.7 301 548.8 301C503 301 457 301 411.2 301C365.3 301 319.7 301 274 301C228.3 301 182.7 301 137 301C91.3 301 45.7 301 22.8 301L0 301Z" fill="#e34c67"></path><path d="M0 258L22.8 257.2C45.7 256.3 91.3 254.7 137 252.5C182.7 250.3 228.3 247.7 274 247.3C319.7 247 365.3 249 411.2 248.5C457 248 503 245 548.8 243.7C594.7 242.3 640.3 242.7 686 243.7C731.7 244.7 777.3 246.3 823 250C868.7 253.7 914.3 259.3 937.2 262.2L960 265L960 301L937.2 301C914.3 301 868.7 301 823 301C777.3 301 731.7 301 686 301C640.3 301 594.7 301 548.8 301C503 301 457 301 411.2 301C365.3 301 319.7 301 274 301C228.3 301 182.7 301 137 301C91.3 301 45.7 301 22.8 301L0 301Z" fill="#ef5f67"></path><path d="M0 280L22.8 278.8C45.7 277.7 91.3 275.3 137 272.7C182.7 270 228.3 267 274 266.2C319.7 265.3 365.3 266.7 411.2 268.3C457 270 503 272 548.8 271.2C594.7 270.3 640.3 266.7 686 268C731.7 269.3 777.3 275.7 823 278.5C868.7 281.3 914.3 280.7 937.2 280.3L960 280L960 301L937.2 301C914.3 301 868.7 301 823 301C777.3 301 731.7 301 686 301C640.3 301 594.7 301 548.8 301C503 301 457 301 411.2 301C365.3 301 319.7 301 274 301C228.3 301 182.7 301 137 301C91.3 301 45.7 301 22.8 301L0 301Z" fill="#fa7268"></path></svg>