<svg id="visual" viewBox="0 0 960 400" width="960" height="400" xmlns="http://www.w3.org/2000/svg" xmlns:xlink="http://www.w3.org/1999/xlink" version="1.1"><rect x="0" y="0" width="960" height="400" fill="#241d3f"></rect><path d="M0 291L22.8 294.8C45.7 298.7 91.3 306.3 137 302.8C182.7 299.3 228.3 284.7 274 282C319.7 279.3 365.3 288.7 411.2 288.5C457 288.3 503 278.7 548.8 281.5C594.7 284.3 640.3 299.7 686 303.2C731.7 306.7 777.3 298.3 823 298.3C868.7 298.3 914.3 306.7 937.2 310.8L960 315L960 401L937.2 401C914.3 401 868.7 401 823 401C777.3 401 731.7 401 686 401C640.3 401 594.7 401 548.8 401C503 401 457 401 411.2 401C365.3 401 319.7 401 274 401C228.3 401 182.7 401 137 401C91.3 401 45.7 401 22.8 401L0 401Z" fill="#213b8c"></path><path d="M0 320L22.8 318C45.7 316 91.3 312 137 312C182.7 312 228.3 316 274 317.8C319.7 319.7 365.3 319.3 411.2 316.3C457 313.3 503 307.7 548.8 308.8C594.7 310 640.3 318 686 322.2C731.7 326.3 777.3 326.7 823 324.5C868.7 322.3 914.3 317.7 937.2 315.3L960 313L960 401L937.2 401C914.3 401 868.7 401 823 401C777.3 401 731.7 401 686 401C640.3 401 594.7 401 548.8 401C503 401 457 401 411.2 401C365.3 401 319.7 401 274 401C228.3 401 182.7 401 137 401C91.3 401 45.7 401 22.8 401L0 401Z" fill="#1e2f77"></path><path d="M0 333L22.8 330.8C45.7 328.7 91.3 324.3 137 323C182.7 321.7 228.3 323.3 274 327.2C319.7 331 365.3 337 411.2 335.5C457 334 503 325 548.8 326.3C594.7 327.7 640.3 339.3 686 339.8C731.7 340.3 777.3 329.7 823 325.5C868.7 321.3 914.3 323.7 937.2 324.8L960 326L960 401L937.2 401C914.3 401 868.7 401 823 401C777.3 401 731.7 401 686 401C640.3 401 594.7 401 548.8 401C503 401 457 401 411.2 401C365.3 401 319.7 401 274 401C228.3 401 182.7 401 137 401C91.3 401 45.7 401 22.8 401L0 401Z" fill="#192362"></path><path d="M0 338L22.8 338.3C45.7 338.7 91.3 339.3 137 340.2C182.7 341 228.3 342 274 345.8C319.7 349.7 365.3 356.3 411.2 355.2C457 354 503 345 548.8 342.5C594.7 340 640.3 344 686 344.5C731.7 345 777.3 342 823 342.5C868.7 343 914.3 347 937.2 349L960 351L960 401L937.2 401C914.3 401 868.7 401 823 401C777.3 401 731.7 401 686 401C640.3 401 594.7 401 548.8 401C503 401 457 401 411.2 401C365.3 401 319.7 401 274 401C228.3 401 182.7 401 137 401C91.3 401 45.7 401 22.8 401L0 401Z" fill="#13184e"></path><path d="M0 369L22.8 369.5C45.7 370 91.3 371 137 370C182.7 369 228.3 366 274 366.8C319.7 367.7 365.3 372.3 411.2 375.8C457 379.3 503 381.7 548.8 380.7C594.7 379.7 640.3 375.3 686 374.8C731.7 374.3 777.3 377.7 823 378.5C868.7 379.3 914.3 377.7 937.2 376.8L960 376L960 401L937.2 401C914.3 401 868.7 401 823 401C777.3 401 731.7 401 686 401C640.3 401 594.7 401 548.8 401C503 401 457 401 411.2 401C365.3 401 319.7 401 274 401C228.3 401 182.7 401 137 401C91.3 401 45.7 401 22.8 401L0 401Z" fill="#0c0c3b"></path></svg>